<svg width="362" height="104" viewBox="0 0 362 104" fill="none" xmlns="http://www.w3.org/2000/svg">
<path d="M139.403 17.1C138.303 16.1 137.103 15.3 135.603 14.7C134.103 14.1 132.503 13.8 130.803 13.8C129.103 13.8 127.503 14.1 126.003 14.7C124.503 15.3 123.203 16.1 122.103 17.1C121.003 18.1 120.103 19.3 119.503 20.7C118.903 22.1 118.503 23.5 118.503 25.1V45.1C118.503 46.8 118.803 48.3 119.503 49.7C120.103 51.1 121.003 52.3 122.103 53.3C123.203 54.3 124.503 55.1 126.003 55.7C127.503 56.3 129.103 56.5 130.803 56.5C132.503 56.5 134.103 56.2 135.603 55.6C137.103 55 138.303 54.2 139.403 53.2C140.503 52.2 141.303 51 141.903 49.6C142.503 48.2 142.803 46.8 142.803 45.2V43C142.803 42.5 142.703 42.2 142.503 42C142.303 41.8 142.103 41.8 141.703 41.8H137.103C136.703 41.8 136.403 41.9 136.303 42.1C136.103 42.3 136.003 42.6 136.003 43.1V45.1C136.003 45.8 135.903 46.4 135.603 47C135.403 47.6 135.003 48.2 134.603 48.7C134.203 49.2 133.603 49.6 133.003 49.8C132.403 50.1 131.703 50.2 131.003 50.2C130.303 50.2 129.603 50.1 128.903 49.8C128.303 49.5 127.703 49.1 127.303 48.7C126.803 48.2 126.503 47.7 126.203 47.1C125.903 46.5 125.803 45.8 125.803 45.2V25.2C125.803 24.5 125.903 23.9 126.203 23.3C126.503 22.7 126.803 22.1 127.303 21.7C127.803 21.2 128.303 20.9 128.903 20.6C129.503 20.3 130.203 20.2 131.003 20.2C131.703 20.2 132.403 20.3 133.003 20.6C133.603 20.9 134.103 21.3 134.603 21.7C135.003 22.2 135.403 22.7 135.603 23.3C135.803 23.9 136.003 24.6 136.003 25.2V27.7C136.003 28.2 136.103 28.6 136.303 28.7C136.503 28.9 136.903 28.9 137.303 28.9H141.703C142.003 28.9 142.303 28.8 142.403 28.7C142.603 28.5 142.703 28.2 142.703 27.7V25C142.703 23.4 142.403 22 141.803 20.6C141.303 19.3 140.403 18.1 139.403 17.1ZM167.903 17C166.803 16 165.503 15.1 164.003 14.6C162.503 14 160.903 13.7 159.203 13.7C157.903 13.7 156.703 13.8 155.703 14C154.703 14.2 153.803 14.5 152.903 14.8C152.103 15.1 151.303 15.5 150.703 15.9C150.003 16.3 149.403 16.8 148.803 17.2C148.303 17.5 148.003 17.9 147.903 18.2C147.903 18.5 147.903 18.9 148.103 19.2L149.403 22.1C149.603 22.5 149.903 22.6 150.203 22.6C150.503 22.6 150.803 22.4 151.103 22.2C151.903 21.5 152.803 20.9 153.903 20.4C155.003 19.8 156.403 19.6 158.103 19.6C159.203 19.6 160.103 19.8 160.903 20.2C161.703 20.6 162.303 21.2 162.803 21.8C163.303 22.4 163.603 23.1 163.903 23.9C164.103 24.7 164.203 25.4 164.203 26V30.5H158.803C157.003 30.5 155.403 30.7 153.803 31.2C152.303 31.7 150.903 32.5 149.803 33.5C148.703 34.5 147.803 35.8 147.103 37.4C146.503 38.9 146.103 40.7 146.103 42.7V43.7C146.103 45.9 146.503 47.8 147.303 49.4C148.103 51 149.103 52.3 150.403 53.3C151.603 54.3 153.003 55 154.603 55.5C156.103 56 157.603 56.2 159.003 56.2C159.703 56.2 160.403 56.1 161.303 56C162.203 55.9 163.103 55.6 164.003 55.3C164.903 55 165.803 54.5 166.703 53.9C167.603 53.3 168.403 52.6 169.103 51.7C169.803 50.8 170.403 49.8 170.803 48.7C171.203 47.6 171.403 46.2 171.403 44.7V25.6C171.403 23.9 171.103 22.2 170.403 20.8C169.903 19.3 169.003 18.1 167.903 17ZM164.203 44.6C164.203 45.6 164.003 46.4 163.703 47.1C163.403 47.8 163.003 48.3 162.503 48.8C162.003 49.2 161.403 49.5 160.803 49.7C160.203 49.9 159.603 50 159.103 50C158.503 50 157.903 49.9 157.203 49.7C156.503 49.5 155.903 49.1 155.403 48.6C154.803 48.1 154.403 47.5 154.003 46.7C153.603 45.9 153.503 44.9 153.503 43.8V43C153.503 42.1 153.603 41.2 153.903 40.3C154.103 39.5 154.603 38.7 155.103 38.1C155.703 37.5 156.503 36.9 157.403 36.6C158.403 36.2 159.603 36 161.003 36H164.203V44.6ZM197.003 17.1C195.903 16.1 194.703 15.3 193.203 14.7C191.703 14.1 190.103 13.8 188.403 13.8C186.703 13.8 185.103 14.1 183.603 14.7C182.103 15.3 180.803 16.1 179.703 17.1C178.603 18.1 177.703 19.3 177.103 20.7C176.503 22.1 176.103 23.5 176.103 25.1V45.1C176.103 46.8 176.403 48.3 177.103 49.7C177.703 51.1 178.603 52.3 179.703 53.3C180.803 54.3 182.103 55.1 183.603 55.7C185.103 56.3 186.703 56.5 188.403 56.5C190.103 56.5 191.703 56.2 193.203 55.6C194.703 55 195.903 54.2 197.003 53.2C198.103 52.2 198.903 51 199.503 49.6C200.103 48.2 200.403 46.8 200.403 45.2V43C200.403 42.5 200.303 42.2 200.103 42C199.903 41.8 199.703 41.8 199.303 41.8H194.703C194.303 41.8 194.003 41.9 193.903 42.1C193.703 42.3 193.603 42.6 193.603 43.1V45.1C193.603 45.8 193.503 46.4 193.203 47C193.003 47.6 192.603 48.2 192.203 48.7C191.803 49.2 191.203 49.6 190.603 49.8C190.003 50.1 189.303 50.2 188.603 50.2C187.903 50.2 187.203 50.1 186.503 49.8C185.903 49.5 185.303 49.1 184.903 48.7C184.403 48.2 184.103 47.7 183.803 47.1C183.503 46.5 183.403 45.8 183.403 45.2V25.2C183.403 24.5 183.503 23.9 183.803 23.3C184.103 22.7 184.403 22.1 184.903 21.7C185.403 21.2 185.903 20.9 186.503 20.6C187.103 20.3 187.803 20.2 188.603 20.2C189.303 20.2 190.003 20.3 190.603 20.6C191.203 20.9 191.703 21.3 192.203 21.7C192.603 22.2 193.003 22.7 193.203 23.3C193.403 23.9 193.603 24.6 193.603 25.2V27.7C193.603 28.2 193.703 28.6 193.903 28.7C194.103 28.9 194.503 28.9 194.903 28.9H199.303C199.603 28.9 199.903 28.8 200.003 28.7C200.203 28.5 200.303 28.2 200.303 27.7V25C200.303 23.4 200.003 22 199.403 20.6C198.803 19.3 198.003 18.1 197.003 17.1ZM218.803 14.5H213.803V6.4C213.803 5.9 213.703 5.6 213.403 5.4C213.103 5.2 212.803 5.1 212.503 5.2L207.603 6.7C206.903 6.8 206.603 7.3 206.603 8.1V14.6H203.703C203.503 14.6 203.203 14.7 203.003 14.9C202.703 15.1 202.603 15.4 202.603 15.9V19.8C202.603 20.2 202.703 20.6 203.003 20.8C203.303 21 203.503 21.1 203.703 21.1H206.603V45.9C206.603 47.8 206.803 49.3 207.303 50.6C207.803 51.9 208.403 52.9 209.203 53.7C210.003 54.5 211.003 55 212.103 55.4C213.203 55.7 214.503 55.9 215.803 55.9H218.103C218.503 55.9 218.803 55.9 219.103 55.8C219.303 55.7 219.503 55.6 219.603 55.5C219.703 55.4 219.803 55.3 219.803 55.1C219.803 55 219.803 54.8 219.803 54.7V50.6C219.803 50.4 219.703 50.1 219.603 49.8C219.503 49.5 219.203 49.3 218.703 49.3H217.603C216.203 49.3 215.303 49 214.703 48.3C214.103 47.6 213.903 46.7 213.903 45.6V20.9H218.803C219.103 20.9 219.403 20.8 219.603 20.5C219.803 20.2 219.903 19.9 219.903 19.6V15.7C219.903 15.3 219.803 15 219.603 14.8C219.303 14.6 219.103 14.5 218.803 14.5ZM248.103 14.5H243.003C242.703 14.5 242.403 14.6 242.203 14.8C242.003 15 241.903 15.3 241.903 15.7V44.9C241.903 45.6 241.703 46.3 241.503 46.9C241.303 47.5 240.903 48.1 240.503 48.5C240.103 49 239.503 49.3 238.903 49.6C238.303 49.9 237.603 50 236.803 50C236.003 50 235.303 49.9 234.703 49.6C234.103 49.3 233.503 48.9 233.103 48.4C232.603 47.9 232.303 47.3 232.103 46.7C231.903 46 231.703 45.4 231.703 44.6V15.7C231.703 15.3 231.603 15 231.403 14.8C231.203 14.6 231.003 14.5 230.703 14.5H225.503C225.203 14.5 225.003 14.6 224.803 14.8C224.603 15 224.503 15.3 224.503 15.7V44.8C224.503 46.4 224.803 47.8 225.403 49.2C226.003 50.6 226.903 51.8 227.903 52.9C229.003 54 230.303 54.8 231.803 55.4C233.303 56 234.903 56.3 236.703 56.3C238.703 56.3 240.503 56 242.003 55.4C243.603 54.8 244.903 53.9 245.903 52.9C247.003 51.9 247.803 50.6 248.403 49.2C249.003 47.8 249.203 46.3 249.203 44.7V15.7C249.203 15.3 249.103 15 248.903 14.8C248.603 14.6 248.303 14.5 248.103 14.5ZM275.303 37.5C274.403 36.5 273.303 35.5 272.103 34.6C270.903 33.7 269.603 32.9 268.303 32.1C267.003 31.3 265.903 30.7 265.003 30.1C264.103 29.6 263.403 29 262.803 28.5C262.203 28 261.903 27.5 261.603 26.9C261.403 26.4 261.203 25.7 261.203 24.9C261.203 24.2 261.303 23.5 261.503 22.9C261.703 22.3 262.103 21.7 262.503 21.3C262.903 20.8 263.403 20.5 264.003 20.2C264.603 19.9 265.203 19.8 266.003 19.8C266.703 19.8 267.403 19.9 268.003 20.2C268.603 20.5 269.103 20.8 269.603 21.2C270.003 21.6 270.403 22.2 270.603 22.8C270.903 23.4 271.003 24.1 271.003 24.8V25.8C271.003 26.6 271.403 26.9 272.103 26.9H276.203C276.703 26.9 277.003 26.8 277.203 26.7C277.403 26.6 277.503 26.3 277.503 26V25C277.503 23.4 277.203 21.8 276.703 20.4C276.203 19 275.403 17.8 274.403 16.8C273.403 15.8 272.103 15 270.703 14.4C269.203 13.8 267.603 13.6 265.703 13.6C264.003 13.6 262.403 13.9 261.003 14.5C259.603 15.1 258.303 15.9 257.303 16.9C256.303 17.9 255.503 19.1 254.903 20.5C254.303 21.9 254.003 23.3 254.003 24.9C254.003 26.3 254.203 27.5 254.603 28.6C255.003 29.7 255.503 30.7 256.203 31.6C256.903 32.5 257.703 33.3 258.603 34.1C259.503 34.9 260.503 35.6 261.503 36.2C262.803 37.1 264.003 37.9 265.103 38.6C266.203 39.3 267.203 40 268.103 40.7C268.903 41.4 269.603 42.1 270.103 42.8C270.603 43.5 270.803 44.3 270.803 45.1C270.803 45.8 270.703 46.5 270.403 47.1C270.103 47.7 269.803 48.3 269.303 48.7C268.803 49.2 268.303 49.5 267.703 49.8C267.103 50.1 266.403 50.2 265.703 50.2C265.003 50.2 264.303 50.1 263.603 49.8C263.003 49.6 262.403 49.2 261.903 48.8C261.403 48.4 261.103 47.9 260.803 47.2C260.503 46.6 260.403 45.9 260.403 45.2V44.1C260.403 43.3 260.103 42.9 259.403 42.9H255.103C254.103 42.9 253.503 43.3 253.503 44.1V45C253.503 46.5 253.703 47.9 254.103 49.3C254.503 50.7 255.203 51.9 256.203 52.9C257.203 53.9 258.403 54.8 260.003 55.4C261.603 56 263.503 56.3 265.803 56.3C267.603 56.3 269.203 56 270.703 55.4C272.203 54.8 273.503 54 274.503 53C275.603 52 276.403 50.8 277.003 49.4C277.603 48 277.903 46.5 277.903 44.9C277.903 43.4 277.603 42.1 277.103 40.8C277.003 39.7 276.203 38.5 275.303 37.5ZM303.403 16.9C302.303 15.9 300.903 15.1 299.403 14.5C297.903 13.9 296.303 13.7 294.503 13.7C292.803 13.7 291.203 14 289.703 14.6C288.203 15.2 286.903 16 285.803 17C284.703 18 283.803 19.2 283.203 20.6C282.603 22 282.203 23.5 282.203 25.1V45.1C282.203 46.8 282.503 48.3 283.203 49.7C283.803 51.1 284.703 52.3 285.803 53.3C286.903 54.3 288.203 55.1 289.703 55.7C291.203 56.3 292.803 56.5 294.503 56.5C296.203 56.5 297.803 56.2 299.303 55.7C300.803 55.1 302.103 54.4 303.203 53.3C304.303 52.3 305.203 51.1 305.903 49.7C306.503 48.3 306.903 46.8 306.903 45.1V25.1C306.903 23.5 306.603 21.9 305.903 20.5C305.403 19.1 304.503 17.9 303.403 16.9ZM299.803 44.9C299.803 45.6 299.703 46.2 299.403 46.8C299.103 47.4 298.803 48 298.303 48.4C297.803 48.9 297.303 49.2 296.703 49.5C296.103 49.8 295.403 49.9 294.703 49.9C294.003 49.9 293.303 49.8 292.703 49.5C292.103 49.2 291.503 48.8 291.103 48.4C290.603 47.9 290.303 47.4 290.003 46.8C289.703 46.2 289.603 45.5 289.603 44.9V25.2C289.603 24.5 289.703 23.9 290.003 23.3C290.303 22.7 290.603 22.1 291.103 21.7C291.603 21.2 292.103 20.9 292.703 20.6C293.303 20.3 294.003 20.2 294.803 20.2C295.503 20.2 296.203 20.3 296.803 20.6C297.403 20.9 298.003 21.3 298.403 21.7C298.903 22.2 299.203 22.7 299.503 23.4C299.803 24 299.903 24.7 299.903 25.4V44.9H299.803ZM327.103 14.5H321.403V12.3C321.403 11 321.503 10 321.703 9.2C321.903 8.4 322.203 7.8 322.703 7.3C323.103 6.9 323.703 6.6 324.303 6.4C325.003 6.2 325.703 6.2 326.603 6.2C327.103 6.2 327.503 6.1 327.703 5.9C328.003 5.7 328.103 5.4 328.103 4.9V1.4C328.103 0.9 328.003 0.6 327.803 0.4C327.603 0.2 327.203 0.1 326.703 0.1C324.903 0 323.203 0.1 321.703 0.4C320.203 0.7 318.903 1.2 317.803 2C316.703 2.8 315.803 4 315.203 5.6C314.603 7.1 314.303 9.2 314.303 11.7V14.6H311.003C310.703 14.6 310.503 14.7 310.203 14.9C309.903 15.1 309.803 15.4 309.803 15.7V19.9C309.803 20.3 309.903 20.6 310.203 20.7C310.503 20.9 310.703 21 311.003 21H314.303V54.6C314.303 55.4 314.703 55.8 315.403 55.8H320.403C321.103 55.8 321.403 55.4 321.403 54.6V20.9H327.103C327.403 20.9 327.703 20.8 327.903 20.6C328.103 20.4 328.303 20.2 328.303 19.8V15.6C328.303 15.3 328.203 15 327.903 14.8C327.703 14.5 327.403 14.5 327.103 14.5ZM345.003 20.9C345.303 20.9 345.603 20.8 345.803 20.5C346.003 20.2 346.103 19.9 346.103 19.6V15.7C346.103 15.3 346.003 15 345.803 14.8C345.603 14.6 345.403 14.5 345.103 14.5H340.103V6.4C340.103 5.9 340.003 5.6 339.703 5.4C339.403 5.2 339.103 5.1 338.803 5.2L333.903 6.7C333.203 6.8 332.903 7.3 332.903 8.1V14.6H330.003C329.803 14.6 329.503 14.7 329.303 14.9C329.003 15.1 328.903 15.4 328.903 15.9V19.8C328.903 20.2 329.003 20.6 329.303 20.8C329.603 21 329.803 21.1 330.003 21.1H332.903V45.9C332.903 47.8 333.103 49.3 333.603 50.6C334.103 51.9 334.703 52.9 335.503 53.7C336.303 54.5 337.303 55 338.403 55.4C339.503 55.7 340.803 55.9 342.103 55.9H344.403C344.803 55.9 345.103 55.9 345.403 55.8C345.703 55.7 345.803 55.6 345.903 55.5C346.003 55.4 346.103 55.3 346.103 55.1C346.103 55 346.103 54.8 346.103 54.7V50.6C346.103 50.4 346.003 50.1 345.903 49.8C345.803 49.5 345.503 49.3 345.003 49.3H343.903C342.503 49.3 341.603 49 341.003 48.3C340.403 47.6 340.203 46.7 340.203 45.6V20.9H345.003Z" fill="white"/>
<path d="M136.103 87.1999H133.103C132.903 87.1999 132.703 87.3 132.603 87.4C132.503 87.5 132.403 87.7999 132.403 88.1999V90.6999C132.403 91.2999 132.303 91.8 132.103 92.3C131.903 92.8 131.703 93.1999 131.303 93.5999C131.003 93.9999 130.603 94.3 130.103 94.5C129.603 94.7 129.103 94.8 128.503 94.8C127.903 94.8 127.403 94.7 126.903 94.5C126.403 94.3 126.003 93.9999 125.703 93.5999C125.403 93.1999 125.103 92.8 124.903 92.3C124.703 91.8 124.603 91.2999 124.603 90.6999V71.8C124.603 71.2 124.703 70.6999 124.903 70.1999C125.103 69.6999 125.403 69.3 125.703 68.9C126.003 68.5 126.503 68.2 127.003 68C127.503 67.8 128.003 67.6999 128.603 67.6999C129.203 67.6999 129.703 67.8 130.103 68C130.603 68.2 131.003 68.5 131.303 68.9C131.603 69.3 131.903 69.6999 132.103 70.1999C132.303 70.6999 132.403 71.2 132.403 71.8V73.8C132.403 74.1 132.403 74.4 132.503 74.5C132.603 74.7 132.803 74.6999 133.103 74.6999H136.103C136.403 74.6999 136.603 74.6 136.703 74.5C136.803 74.4 136.903 74.0999 136.903 73.6999V71.5999C136.903 70.4999 136.703 69.5 136.403 68.5C136.003 67.5 135.503 66.6 134.803 65.8C134.103 65 133.303 64.4 132.203 63.9C131.203 63.4 130.003 63.2 128.703 63.2C127.503 63.2 126.303 63.3999 125.303 63.7999C124.203 64.1999 123.303 64.8 122.603 65.5C121.803 66.2 121.203 67.0999 120.803 68.0999C120.403 69.0999 120.103 70.2 120.103 71.3V90.5999C120.103 91.7999 120.303 93 120.803 94C121.303 95 121.903 95.8999 122.703 96.5999C123.503 97.2999 124.403 97.9 125.403 98.3C126.403 98.7 127.603 98.9 128.703 98.9C129.903 98.9 130.903 98.7 132.003 98.3C133.003 97.9 133.903 97.3999 134.703 96.5999C135.503 95.8999 136.103 95 136.503 94C136.903 93 137.203 91.8999 137.203 90.5999V87.8C137.203 87.4 137.103 87.1999 137.003 87.0999C136.503 87.2999 136.303 87.1999 136.103 87.1999ZM154.603 65.6999C153.803 64.9999 152.903 64.4 151.803 64C150.803 63.6 149.703 63.4 148.503 63.4C147.303 63.4 146.203 63.6 145.203 64C144.203 64.4 143.203 64.8999 142.503 65.6999C141.703 66.3999 141.103 67.3 140.603 68.3C140.103 69.3 139.903 70.3999 139.903 71.6999V91C139.903 92.2 140.103 93.3 140.603 94.3C141.103 95.3 141.703 96.2 142.503 96.9C143.303 97.6 144.203 98.1999 145.203 98.5999C146.203 98.9999 147.303 99.1999 148.503 99.1999C149.703 99.1999 150.803 98.9999 151.803 98.5999C152.803 98.1999 153.803 97.7 154.503 96.9C155.303 96.2 155.903 95.3 156.403 94.3C156.903 93.3 157.103 92.2 157.103 90.9V71.6999C157.103 70.4999 156.903 69.3 156.403 68.3C156.003 67.3 155.403 66.3999 154.603 65.6999ZM152.403 90.8C152.403 91.4 152.303 91.9 152.103 92.4C151.903 92.9 151.603 93.2999 151.303 93.6999C151.003 94.0999 150.503 94.2999 150.103 94.5999C149.603 94.7999 149.103 94.9 148.503 94.9C147.903 94.9 147.403 94.7999 146.903 94.5999C146.403 94.3999 146.003 94.0999 145.703 93.6999C145.403 93.2999 145.103 92.9 144.903 92.4C144.703 91.9 144.603 91.4 144.603 90.8V71.9C144.603 71.3 144.703 70.8 144.903 70.3C145.103 69.8 145.403 69.3 145.703 69C146.003 68.6 146.503 68.2999 146.903 68.0999C147.403 67.8999 147.903 67.8 148.503 67.8C149.103 67.8 149.603 67.8999 150.103 68.0999C150.603 68.2999 151.003 68.6 151.303 69C151.603 69.4 151.903 69.8 152.103 70.3C152.303 70.8 152.403 71.3 152.403 71.9V90.8ZM175.803 65.8C175.003 65.1 174.103 64.5 173.103 64C172.103 63.6 170.903 63.4 169.803 63.4C168.603 63.4 167.503 63.6 166.503 64C165.503 64.4 164.603 65 163.803 65.8C163.003 66.5 162.403 67.4 161.903 68.4C161.403 69.4 161.203 70.4999 161.203 71.5999V97.6999C161.203 97.9999 161.303 98.2 161.403 98.4C161.503 98.6 161.703 98.6999 161.803 98.6999H165.203C165.503 98.6999 165.703 98.6 165.803 98.4C165.903 98.2 166.003 98 166.003 97.8V71.9C166.003 71.3 166.103 70.8 166.303 70.3C166.503 69.8 166.803 69.4 167.103 69C167.403 68.6 167.903 68.2999 168.303 68.0999C168.803 67.8999 169.303 67.8 169.903 67.8C170.503 67.8 171.003 67.8999 171.503 68.0999C172.003 68.2999 172.403 68.6 172.703 69C173.103 69.4 173.303 69.8 173.503 70.3C173.703 70.8 173.803 71.3 173.803 71.9V97.6999C173.803 97.9999 173.903 98.2 174.003 98.4C174.103 98.6 174.303 98.6999 174.603 98.6999H177.903C178.203 98.6999 178.403 98.6 178.503 98.4C178.603 98.2 178.703 97.9999 178.703 97.6999V71.6999C178.703 70.5999 178.503 69.5 178.003 68.5C177.203 67.4 176.603 66.6 175.803 65.8ZM196.903 83.9C196.203 83 195.303 82.1 194.303 81.3C193.303 80.5 192.203 79.5999 191.003 78.5999C190.503 78.1999 189.903 77.7 189.403 77.3C188.903 76.9 188.403 76.4 188.003 75.9C187.603 75.4 187.203 74.9 187.003 74.3C186.703 73.7 186.603 73 186.603 72.3C186.603 71.4 186.703 70.6999 187.003 70.0999C187.303 69.4999 187.603 69.0999 188.003 68.6999C188.403 68.2999 188.803 68.1 189.303 68C189.803 67.9 190.203 67.8 190.603 67.8C191.203 67.8 191.803 67.8999 192.203 68.1999C192.703 68.3999 193.103 68.7999 193.403 69.1999C193.703 69.5999 194.003 69.9999 194.103 70.5999C194.203 71.1999 194.403 71.5999 194.403 72.1999V73.6999C194.403 73.9999 194.403 74.2 194.503 74.4C194.603 74.5 194.803 74.5999 195.103 74.5999H198.003C198.303 74.5999 198.603 74.5 198.703 74.4C198.803 74.3 198.903 73.9999 198.903 73.6999V72C198.903 70.8 198.703 69.5999 198.303 68.5999C197.903 67.5999 197.303 66.7 196.603 65.9C195.903 65.1 195.003 64.4999 194.003 64.0999C193.003 63.6999 191.903 63.5 190.603 63.5C190.103 63.5 189.603 63.6 189.003 63.7C188.403 63.8 187.803 64 187.203 64.3C186.603 64.6 186.003 64.9 185.403 65.3C184.803 65.7 184.303 66.3 183.803 66.9C183.303 67.5 183.003 68.2999 182.703 69.1999C182.403 70.0999 182.303 71.0999 182.303 72.1999C182.303 73.4999 182.503 74.6999 182.803 75.5999C183.103 76.5999 183.603 77.3999 184.203 78.1999C184.803 78.9999 185.603 79.8 186.503 80.5C187.403 81.3 188.403 82.1 189.503 83C190.503 83.8 191.303 84.4999 192.003 85.0999C192.703 85.6999 193.203 86.3 193.703 86.9C194.103 87.5 194.403 88.0999 194.603 88.6999C194.803 89.2999 194.903 90 194.903 90.8C194.903 91.4 194.803 92 194.603 92.5C194.403 93 194.103 93.4 193.703 93.8C193.303 94.2 192.903 94.4999 192.403 94.6999C191.903 94.8999 191.403 95 190.803 95C190.403 95 189.903 94.9 189.503 94.8C189.003 94.6 188.603 94.4 188.203 94C187.803 93.6 187.503 93.1999 187.203 92.5999C186.903 91.9999 186.803 91.3 186.803 90.5V89.3C186.803 89 186.703 88.7999 186.603 88.5999C186.503 88.4999 186.303 88.4 186.003 88.4H183.003C182.703 88.4 182.503 88.4999 182.403 88.6999C182.303 88.8999 182.303 89.1 182.303 89.5V90.8C182.303 92.1 182.503 93.1999 182.903 94.1999C183.303 95.1999 183.903 96.1 184.603 96.9C185.303 97.7 186.203 98.1999 187.303 98.6999C188.303 99.0999 189.503 99.3 190.703 99.3C192.003 99.3 193.103 99.0999 194.203 98.5999C195.303 98.0999 196.203 97.5 196.903 96.8C197.703 96 198.303 95.1999 198.703 94.1999C199.103 93.1999 199.303 92.1999 199.303 91.0999C199.303 89.4999 199.103 88.1999 198.703 87.0999C198.203 85.7999 197.703 84.8 196.903 83.9ZM216.003 64H201.203C201.003 64 200.903 64.0999 200.703 64.1999C200.603 64.2999 200.503 64.5 200.503 64.8V67.5C200.503 67.8 200.603 67.9999 200.703 68.0999C200.803 68.1999 201.003 68.3 201.203 68.3H206.203V97.8C206.203 98.1 206.303 98.3 206.403 98.4C206.503 98.5 206.703 98.5999 206.903 98.5999H210.303C210.503 98.5999 210.603 98.5 210.803 98.4C210.903 98.3 211.003 98.1 211.003 97.8V68.3H216.003C216.203 68.3 216.303 68.1999 216.503 68.0999C216.603 67.9999 216.703 67.8 216.703 67.5V64.6999C216.703 64.3999 216.603 64.1999 216.503 64.0999C216.303 63.9999 216.103 64 216.003 64ZM234.103 66.5C233.403 65.7 232.503 65.0999 231.403 64.6999C230.403 64.2999 229.203 64 228.003 64H220.003C219.703 64 219.603 64.1 219.403 64.3C219.303 64.5 219.203 64.7 219.203 65V97.9C219.203 98.5 219.503 98.8 220.003 98.8H223.203C223.703 98.8 224.003 98.5 224.003 97.9V84.0999H224.503C225.603 84.0999 226.603 84.2 227.403 84.5C228.303 84.8 229.003 85.3 229.603 85.9C230.203 86.6 230.603 87.4 230.903 88.5C231.203 89.6 231.403 90.9 231.403 92.4V97.5C231.403 97.8 231.503 98.1 231.703 98.3C231.903 98.5 232.103 98.5999 232.403 98.5999H235.403C235.703 98.5999 235.903 98.5 236.003 98.3C236.103 98.1 236.203 97.8999 236.203 97.6999V93.0999C236.203 90.3999 235.903 88.1999 235.303 86.5999C234.703 84.8999 233.703 83.7 232.503 82.8C233.103 82.5 233.703 82.0999 234.203 81.6999C234.703 81.2999 235.203 80.7999 235.503 80.1999C235.903 79.5999 236.203 79 236.403 78.3C236.603 77.6 236.703 76.9 236.703 76V72.5999C236.703 71.3999 236.503 70.2999 236.103 69.1999C235.403 68.1999 234.803 67.2 234.103 66.5ZM231.703 76.4C231.703 77.7 231.303 78.6 230.603 79.4C229.903 80.1 228.803 80.5 227.303 80.5H223.903V68.3H227.603C228.203 68.3 228.803 68.3999 229.303 68.5999C229.803 68.7999 230.203 69.1 230.603 69.5C230.903 69.9 231.203 70.3 231.403 70.9C231.603 71.4 231.703 71.9999 231.703 72.5999V76.4ZM257.003 64H253.703C253.403 64 253.303 64.1 253.203 64.3C253.103 64.5 253.003 64.7 253.003 65V90.8C253.003 91.4 252.903 91.9 252.703 92.4C252.503 92.9 252.203 93.2999 251.903 93.6999C251.603 94.0999 251.103 94.3999 250.703 94.5999C250.203 94.7999 249.703 94.9 249.103 94.9C248.503 94.9 248.003 94.7999 247.503 94.5999C247.003 94.3999 246.603 94.0999 246.303 93.6999C246.003 93.2999 245.703 92.9 245.503 92.4C245.303 91.9 245.203 91.4 245.203 90.8V64.9C245.203 64.6 245.203 64.4 245.103 64.3C245.003 64.1 244.803 64 244.603 64H241.203C241.003 64 240.903 64.1 240.703 64.3C240.603 64.5 240.503 64.7 240.503 65V91.0999C240.503 92.1999 240.703 93.3 241.203 94.3C241.703 95.3 242.303 96.2 243.103 96.9C243.903 97.6 244.803 98.1999 245.803 98.6999C246.803 99.0999 247.903 99.3 249.103 99.3C250.303 99.3 251.403 99.0999 252.403 98.6999C253.403 98.2999 254.403 97.7 255.103 96.9C255.903 96.2 256.503 95.3 257.003 94.3C257.503 93.3 257.703 92.1999 257.703 91.0999V65.0999C257.703 64.8999 257.603 64.6 257.503 64.4C257.403 64.1 257.303 64 257.003 64ZM277.903 87.1999H274.903C274.703 87.1999 274.503 87.3 274.403 87.4C274.303 87.5 274.203 87.7999 274.203 88.1999V90.6999C274.203 91.2999 274.103 91.8 273.903 92.3C273.703 92.8 273.503 93.1999 273.103 93.5999C272.703 93.9999 272.403 94.3 271.903 94.5C271.403 94.7 270.903 94.8 270.303 94.8C269.703 94.8 269.203 94.7 268.703 94.5C268.203 94.3 267.803 93.9999 267.503 93.5999C267.203 93.1999 266.903 92.8 266.703 92.3C266.503 91.8 266.403 91.2999 266.403 90.6999V71.8C266.403 71.2 266.503 70.6999 266.703 70.1999C266.903 69.6999 267.203 69.3 267.503 68.9C267.803 68.5 268.303 68.2 268.803 68C269.303 67.8 269.803 67.6999 270.403 67.6999C271.003 67.6999 271.503 67.8 271.903 68C272.403 68.2 272.803 68.5 273.103 68.9C273.403 69.3 273.703 69.6999 273.903 70.1999C274.103 70.6999 274.203 71.2 274.203 71.8V73.8C274.203 74.1 274.203 74.4 274.303 74.5C274.403 74.7 274.603 74.6999 274.903 74.6999H277.903C278.203 74.6999 278.403 74.6 278.503 74.5C278.603 74.4 278.703 74.0999 278.703 73.6999V71.5999C278.703 70.4999 278.503 69.5 278.203 68.5C277.803 67.5 277.303 66.6 276.603 65.8C275.903 65 275.103 64.4 274.003 63.9C273.003 63.4 271.803 63.2 270.503 63.2C269.303 63.2 268.103 63.3999 267.103 63.7999C266.003 64.1999 265.103 64.8 264.403 65.5C263.603 66.2 263.003 67.0999 262.603 68.0999C262.203 69.0999 261.903 70.2 261.903 71.3V90.5999C261.903 91.7999 262.103 93 262.603 94C263.103 95 263.703 95.8999 264.503 96.5999C265.303 97.2999 266.203 97.9 267.203 98.3C268.203 98.7 269.403 98.9 270.503 98.9C271.703 98.9 272.703 98.7 273.803 98.3C274.803 97.9 275.703 97.3999 276.503 96.5999C277.303 95.8999 277.903 95 278.303 94C278.703 93 279.003 91.8999 279.003 90.5999V87.8C279.003 87.4 278.903 87.1999 278.803 87.0999C278.403 87.2999 278.203 87.1999 277.903 87.1999ZM295.603 64H280.803C280.603 64 280.503 64.0999 280.303 64.1999C280.203 64.2999 280.103 64.5 280.103 64.8V67.5C280.103 67.8 280.203 67.9999 280.303 68.0999C280.403 68.1999 280.603 68.3 280.803 68.3H285.803V97.8C285.803 98.1 285.903 98.3 286.003 98.4C286.103 98.5 286.303 98.5999 286.503 98.5999H289.903C290.103 98.5999 290.203 98.5 290.403 98.4C290.503 98.3 290.603 98.1 290.603 97.8V68.3H295.603C295.803 68.3 295.903 68.1999 296.103 68.0999C296.203 67.9999 296.303 67.8 296.303 67.5V64.6999C296.303 64.3999 296.203 64.1999 296.103 64.0999C295.903 63.9999 295.703 64 295.603 64ZM302.803 64H299.503C299.203 64 299.103 64.1 298.903 64.3C298.803 64.5 298.703 64.7 298.703 65V97.8C298.703 98.1 298.803 98.3 298.903 98.5C299.003 98.7 299.203 98.6999 299.503 98.6999H302.703C303.003 98.6999 303.203 98.6 303.303 98.5C303.403 98.3 303.503 98.1 303.503 97.8V64.9C303.503 64.6 303.403 64.3999 303.303 64.1999C303.203 64.0999 303.003 64 302.803 64ZM322.503 65.6999C321.703 64.9999 320.803 64.4 319.703 64C318.703 63.6 317.603 63.4 316.403 63.4C315.203 63.4 314.103 63.6 313.103 64C312.103 64.4 311.103 64.8999 310.403 65.6999C309.603 66.3999 309.003 67.3 308.503 68.3C308.003 69.3 307.803 70.3999 307.803 71.6999V91C307.803 92.2 308.003 93.3 308.503 94.3C309.003 95.3 309.603 96.2 310.403 96.9C311.203 97.6 312.103 98.1999 313.103 98.5999C314.103 98.9999 315.203 99.1999 316.403 99.1999C317.603 99.1999 318.703 98.9999 319.703 98.5999C320.703 98.1999 321.703 97.7 322.403 96.9C323.203 96.2 323.803 95.3 324.303 94.3C324.803 93.3 325.003 92.2 325.003 90.9V71.6999C325.003 70.4999 324.803 69.3 324.303 68.3C323.903 67.3 323.303 66.3999 322.503 65.6999ZM320.303 90.8C320.303 91.4 320.203 91.9 320.003 92.4C319.803 92.9 319.503 93.2999 319.203 93.6999C318.903 94.0999 318.403 94.2999 318.003 94.5999C317.503 94.7999 317.003 94.9 316.403 94.9C315.803 94.9 315.303 94.7999 314.803 94.5999C314.303 94.3999 313.903 94.0999 313.603 93.6999C313.303 93.2999 313.003 92.9 312.803 92.4C312.603 91.9 312.503 91.4 312.503 90.8V71.9C312.503 71.3 312.603 70.8 312.803 70.3C313.003 69.8 313.303 69.3 313.603 69C313.903 68.6 314.403 68.2999 314.803 68.0999C315.303 67.8999 315.803 67.8 316.403 67.8C317.003 67.8 317.503 67.8999 318.003 68.0999C318.503 68.2999 318.903 68.6 319.203 69C319.503 69.4 319.803 69.8 320.003 70.3C320.203 70.8 320.303 71.3 320.303 71.9V90.8ZM345.603 68.4C345.103 67.4 344.503 66.5 343.703 65.8C342.903 65.1 342.003 64.5 341.003 64C340.003 63.6 338.803 63.4 337.703 63.4C336.503 63.4 335.403 63.6 334.403 64C333.403 64.4 332.503 65 331.703 65.8C330.903 66.5 330.303 67.4 329.803 68.4C329.303 69.4 329.103 70.4999 329.103 71.5999V97.6999C329.103 97.9999 329.203 98.2 329.303 98.4C329.403 98.6 329.603 98.6999 329.703 98.6999H333.103C333.403 98.6999 333.603 98.6 333.703 98.4C333.803 98.2 333.903 98 333.903 97.8V71.9C333.903 71.3 334.003 70.8 334.203 70.3C334.403 69.8 334.703 69.4 335.003 69C335.303 68.6 335.803 68.2999 336.203 68.0999C336.703 67.8999 337.203 67.8 337.803 67.8C338.403 67.8 338.903 67.8999 339.403 68.0999C339.903 68.2999 340.303 68.6 340.603 69C341.003 69.4 341.203 69.8 341.403 70.3C341.603 70.8 341.703 71.3 341.703 71.9V97.6999C341.703 97.9999 341.803 98.2 341.903 98.4C342.003 98.6 342.203 98.6999 342.503 98.6999H345.803C346.103 98.6999 346.303 98.6 346.403 98.4C346.503 98.2 346.603 97.9999 346.603 97.6999V71.6999C346.303 70.4999 346.003 69.4 345.603 68.4Z" fill="white"/>
<path d="M78.9027 4.69995H15.0027C6.40275 4.69995 -0.497253 11.7 -0.497253 20.2V88.9C-0.497253 97.5 6.40275 104.4 15.0027 104.4H78.9027C87.5027 104.4 94.4027 97.5 94.4027 88.9V20.2C94.4027 11.7 87.4027 4.69995 78.9027 4.69995ZM36.7027 65.4H30.8027C25.1027 65.4 20.5027 60.7999 20.5027 55.0999V35.5H36.7027V65.4ZM55.2027 96.4H40.6027V12.7H44.8027C50.5027 12.7 55.1027 17.3 55.1027 23V96.4H55.2027ZM73.3027 57.7C73.3027 63.4 68.7027 68 63.0027 68H58.8027V22.5H73.4027V57.7H73.3027Z" fill="white"/>
<path d="M352.403 5.8C352.403 4.3 352.403 2.7 352.503 1.9C352.103 3.3 350.903 6.7 350.003 9.2H348.903C348.203 7.1 346.903 3.3 346.603 1.9C346.703 2.8 346.703 4.6 346.703 6V9.2H345.603V1H347.403C348.303 3.5 349.303 6.6 349.603 7.7C349.803 6.9 351.103 3.4 352.003 1H353.803V9.2H352.603V5.8H352.403Z" fill="white"/>
<path d="M362.303 6.80002C361.903 8.20002 360.903 9.30002 359.003 9.30002C356.503 9.30002 355.303 7.40002 355.303 5.10002C355.303 2.90002 356.503 0.900024 359.103 0.900024C361.103 0.900024 362.103 2.00002 362.403 3.40002H361.203C360.903 2.60002 360.403 1.90002 359.103 1.90002C357.403 1.90002 356.703 3.50002 356.703 5.10002C356.703 6.70002 357.403 8.30002 359.203 8.30002C360.403 8.30002 361.003 7.60002 361.203 6.80002H362.303Z" fill="white"/>
</svg>
