<svg width="329" height="64" viewBox="0 0 329 64" fill="none" xmlns="http://www.w3.org/2000/svg">
<path d="M73.576 37.4869V63.5758H65.9653V0.163818H88.6122C91.8725 0.163818 94.7133 0.632876 97.128 1.56769C99.5426 2.50581 101.551 3.75773 103.153 5.32676C104.752 6.8991 105.961 8.72248 106.776 10.8068C107.593 12.8911 107.999 15.0812 107.999 17.3736V20.0921C107.999 22.3879 107.593 24.5911 106.776 26.7052C105.961 28.8193 104.739 30.679 103.107 32.2777C101.475 33.8798 99.4534 35.1482 97.0355 36.0831C94.6208 37.0212 91.8098 37.4869 88.6089 37.4869H73.5694H73.576ZM73.576 30.4213H87.7072C96.1634 30.4213 100.392 26.7977 100.392 19.5504V17.9186C100.392 14.7178 99.351 12.1347 97.2667 10.1726C95.1824 8.21048 91.9981 7.22942 87.7105 7.22942H73.5793V30.4213H73.576Z" fill="#FFFFFE"/>
<path d="M116.606 0.163818H156.83V7.22942H140.522V56.5102H156.83V63.5758H116.606V56.5102H132.915V7.22942H116.606V0.163818Z" fill="#FFFFFE"/>
<path d="M202.966 60.3188H204.053V0.163818H211.664V63.5791H196.445L178.145 3.42741H177.06V63.5791H169.449V0.163818H184.666L202.966 60.3155V60.3188Z" fill="#FFFFFE"/>
<path d="M260.132 47.8161H232.953L228.332 63.5791H220.179L239.384 0.163818H253.698L272.903 63.5791H264.75L260.129 47.8161H260.132ZM246.001 3.42741L235.041 40.7505H258.051L247.091 3.42741H246.004H246.001Z" fill="#FFFFFE"/>
<path d="M288.758 0.163818L302.982 28.2478H304.614L318.837 0.163818H327.171L311.319 31.2372V32.324L327.171 63.5791H318.837L304.614 35.3134H302.982L288.758 63.5791H280.424L296.276 32.324V31.2372L280.424 0.163818H288.758Z" fill="#FFFFFE"/>
<path d="M25.6823 0.348633L16.4531 8.53072V10.5523L25.6823 18.7344L34.9115 10.5523V8.53072L25.6823 0.348633ZM31.5125 10.179L25.6823 15.3452L19.8521 10.179V8.90069L25.6823 3.73444L31.5125 8.90069V10.179Z" fill="#FFFFFE"/>
<path d="M25.6823 15.3455L16.4531 23.5275V25.5491L25.6823 33.7312L34.9115 25.5491V23.5275L25.6823 15.3455ZM31.5125 25.1759L25.6823 30.3421L19.8521 25.1759V23.8975L25.6823 18.7313L31.5125 23.8975V25.1759Z" fill="#FFFFFE"/>
<path d="M25.6823 45.342L16.4531 53.5241V55.5457L25.6823 63.7278L34.9115 55.5457V53.5241L25.6823 45.342ZM31.5125 55.1725L25.6823 60.3388L19.8521 55.1725V53.8941L25.6823 48.7279L31.5125 53.8941V55.1725Z" fill="#FFFFFE"/>
<path d="M10.5202 15.3455L1.29102 23.5275V25.5491L10.5202 33.7312L19.7494 25.5491V23.5275L10.5202 15.3455ZM16.3504 25.1759L10.5202 30.3421L4.69004 25.1759V23.8975L10.5202 18.7313L16.3504 23.8975V25.1759Z" fill="#FFFFFE"/>
<path d="M10.5202 30.342L1.29102 38.5241V40.5457L10.5202 48.7278L19.7494 40.5457V38.5241L10.5202 30.342ZM16.3504 40.1724L10.5202 45.3387L4.69004 40.1724V38.8941L10.5202 33.7278L16.3504 38.8941V40.1724Z" fill="#FFFFFE"/>
<path d="M10.5202 45.342L1.29102 53.5241V55.5457L10.5202 63.7278L19.7494 55.5457V53.5241L10.5202 45.342ZM16.3504 55.1725L10.5202 60.3388L4.69004 55.1725V53.8941L10.5202 48.7279L16.3504 53.8941V55.1725Z" fill="#FFFFFE"/>
<path d="M40.8474 15.3455L31.6182 23.5275V25.5491L40.8474 33.7312L50.0766 25.5491V23.5275L40.8474 15.3455ZM46.6776 25.1759L40.8474 30.3421L35.0172 25.1759V23.8975L40.8474 18.7313L46.6776 23.8975V25.1759Z" fill="#FFFFFE"/>
<path d="M40.8474 30.342L31.6182 38.5241V40.5457L40.8474 48.7278L50.0766 40.5457V38.5241L40.8474 30.342ZM46.6776 40.1724L40.8474 45.3387L35.0172 40.1724V38.8941L40.8474 33.7278L46.6776 38.8941V40.1724Z" fill="#FFFFFE"/>
<path d="M40.8474 45.342L31.6182 53.5241V55.5457L40.8474 63.7278L50.0766 55.5457V53.5241L40.8474 45.342ZM46.6776 55.1725L40.8474 60.3388L35.0172 55.1725V53.8941L40.8474 48.7279L46.6776 53.8941V55.1725Z" fill="#FFFFFE"/>
</svg>
