<?xml version="1.0" encoding="utf-8"?>
<!-- Generator: Adobe Illustrator 22.0.1, SVG Export Plug-In . SVG Version: 6.00 Build 0)  -->
<svg version="1.1" id="Layer_1" xmlns="http://www.w3.org/2000/svg" xmlns:xlink="http://www.w3.org/1999/xlink" x="0px" y="0px"
	 viewBox="100 50 500 400" enable-background="new 0 0 720 503.999" xml:space="preserve">
<symbol  id="New_Symbol" viewBox="-0.763 -0.763 1.526 1.525">
	<path fill="#FFFFFF" d="M0.763-0.001c0-0.421-0.342-0.762-0.763-0.762s-0.763,0.341-0.763,0.762S-0.421,0.763,0,0.763
		S0.763,0.42,0.763-0.001z"/>
</symbol>
<g>
	<rect x="0" y="0" fill="#FFFFFF" width="720" height="503.999"/>
</g>
<g>
	<polygon fill="#D9DADC" points="53,401.06 14,489.667 706,489.667 664,401.06 	"/>
</g>
<rect x="48.625" y="10.541" fill="#F7F7F7" width="610.75" height="382.917"/>
<polygon fill="#E6D9CD" points="659.375,138.333 659.375,138.333 179.667,393.457 659.375,393.457 "/>
<g>
	<g>
		<g>
			<g opacity="0.2">
				<g opacity="0.5">
					<g>
						<polygon fill="#352012" points="289.601,199.565 183.602,199.565 174.019,193.065 174.019,55.284 285.114,55.284 
							289.601,61.972 						"/>
					</g>
				</g>
			</g>
			<g>
				<g>
					<g>
						<g>
							<rect x="174.044" y="52.917" fill="#3A3A3A" width="108.414" height="140.459"/>
						</g>
					</g>
				</g>
				<g>
					<g>
						<g>
							<rect x="178.859" y="57.774" fill="#FCF8F0" width="98.781" height="130.143"/>
						</g>
					</g>
				</g>
			</g>
			<g>
				<g>
					<g>
						<polygon fill="#161616" points="178.859,187.916 174.044,193.376 174.044,52.917 178.859,57.774 						"/>
					</g>
				</g>
			</g>
			<g>
				<g>
					<polygon fill="#686868" points="277.642,187.916 282.457,193.376 282.457,52.918 277.642,57.774 					"/>
				</g>
			</g>
		</g>
		<g>
			<rect x="193.507" y="71.811" fill="#F2ECE2" width="69.493" height="101.039"/>
		</g>
	</g>
	<polygon opacity="0.32" fill="#E2C9DF" points="217.197,113.331 223.595,98.842 209.554,91.511 225.311,93.118 227.944,77.499 
		231.285,92.982 246.953,90.659 233.261,98.621 240.311,112.805 228.508,102.243 	"/>
	<polygon opacity="0.49" fill="#E2C9DF" points="218.029,137.58 224.426,123.09 210.385,115.759 226.143,117.366 228.776,101.747 
		232.117,117.23 247.785,114.908 234.092,122.87 241.143,137.053 229.339,126.491 	"/>
	<polygon opacity="0.67" fill="#E2C9DF" points="218.612,162.174 225.01,147.684 210.969,140.354 226.726,141.96 229.359,126.341 
		232.7,141.824 248.368,139.502 234.676,147.464 241.726,161.647 229.923,151.085 	"/>
</g>
<g>
	<g>
		<g>
			<g opacity="0.2">
				<g opacity="0.5">
					<g>
						<polygon fill="#352012" points="505.788,113.366 467.759,113.366 464.321,111.034 464.321,61.603 504.178,61.603 
							505.788,64.002 						"/>
					</g>
				</g>
			</g>
			<g>
				<g>
					<g>
						<g>
							<rect x="464.33" y="60.753" fill="#3A3A3A" width="38.895" height="50.392"/>
						</g>
					</g>
				</g>
				<g>
					<g>
						<g>
							<rect x="466.057" y="62.496" fill="#FCF8F0" width="35.439" height="46.691"/>
						</g>
					</g>
				</g>
			</g>
			<g>
				<g>
					<g>
						<polygon fill="#161616" points="466.057,109.187 464.33,111.145 464.33,60.753 466.057,62.496 						"/>
					</g>
				</g>
			</g>
			<g>
				<g>
					<polygon fill="#686868" points="501.497,109.187 503.225,111.145 503.225,60.754 501.497,62.496 					"/>
				</g>
			</g>
		</g>
		<g>
			<rect x="471.312" y="67.532" fill="#F2ECE2" width="24.932" height="36.249"/>
		</g>
	</g>
	<polygon fill="#F7F7F7" points="478.091,94.969 481.486,87.281 474.036,83.392 482.397,84.244 483.793,75.957 485.566,84.172 
		493.879,82.94 486.614,87.164 490.355,94.69 484.092,89.086 	"/>
</g>
<g>
	<g>
		<g opacity="0.2">
			<g opacity="0.5">
				<g>
					<polygon fill="#352012" points="505.788,180.037 467.759,180.037 464.321,177.705 464.321,128.274 504.178,128.274 
						505.788,130.674 					"/>
				</g>
			</g>
		</g>
		<g>
			<g>
				<g>
					<g>
						<rect x="464.33" y="127.425" fill="#3A3A3A" width="38.895" height="50.392"/>
					</g>
				</g>
			</g>
			<g>
				<g>
					<g>
						<rect x="466.057" y="129.167" fill="#FCF8F0" width="35.439" height="46.691"/>
					</g>
				</g>
			</g>
		</g>
		<g>
			<g>
				<g>
					<polygon fill="#161616" points="466.057,175.858 464.33,177.817 464.33,127.425 466.057,129.167 					"/>
				</g>
			</g>
		</g>
		<g>
			<g>
				<polygon fill="#686868" points="501.497,175.858 503.225,177.817 503.225,127.425 501.497,129.167 				"/>
			</g>
		</g>
	</g>
	<g>
		<rect x="471.312" y="134.203" fill="#F2ECE2" width="24.932" height="36.249"/>
	</g>
</g>
<polygon fill="#D3CCC2" points="477.374,160.455 480.871,152.535 473.196,148.528 481.81,149.406 483.249,140.868 485.075,149.332 
	493.64,148.062 486.155,152.414 490.009,160.167 483.557,154.394 "/>
<g>
	<rect x="593.95" y="11.429" fill="#B1AFAC" width="0.784" height="52.099"/>
	<rect x="593.427" y="59.674" fill="#A09F9F" width="1.96" height="3.854"/>
	<path fill="#B1AFAC" d="M596.548,63.16c-2.783-0.378-5.309-0.103-8.496,0.857c-5.373,1.619-0.49,11.104,0.294,12.802
		c0.784,1.698,0.523,6.532,0.523,6.532h5.356h4C597.483,76.404,600.363,69.536,596.548,63.16z"/>
	<path fill="#A09F9F" d="M600.397,64.017c-1.386-0.417-2.639-0.693-3.849-0.857c3.815,6.375,0.935,13.243,1.676,20.191h1.356
		c0,0-0.261-4.834,0.523-6.532C600.887,75.122,605.77,65.636,600.397,64.017z"/>
	<g>
		<path fill="#54524F" d="M594.224,83.352v4.924c1.081,0.031,2.027-0.037,2.683-0.306c0.691-0.283,2.534-1.837,2.506-4.618H594.224z
			"/>
		<path fill="#54524F" d="M594.224,83.352v4.924c-1.081,0.031-2.027-0.037-2.683-0.306c-0.691-0.283-2.534-1.837-2.506-4.618
			H594.224z"/>
	</g>
	<circle opacity="0.36" fill="#D6D09D" cx="593.95" cy="96.775" r="12.443"/>
</g>
<g>
	<rect x="107.513" y="10.152" fill="#B1AFAC" width="0.784" height="52.099"/>
	<rect x="106.991" y="58.397" fill="#A09F9F" width="1.96" height="3.854"/>
	<path fill="#B1AFAC" d="M110.111,61.883c-2.783-0.378-5.309-0.103-8.496,0.857c-5.373,1.619-0.49,11.104,0.294,12.802
		c0.784,1.698,0.523,6.532,0.523,6.532h5.356h4C111.047,75.126,113.927,68.258,110.111,61.883z"/>
	<path fill="#A09F9F" d="M113.961,62.74c-1.386-0.417-2.639-0.693-3.849-0.857c3.815,6.375,0.935,13.243,1.676,20.191h1.356
		c0,0-0.261-4.834,0.523-6.532C114.45,73.844,119.333,64.359,113.961,62.74z"/>
	<g>
		<path fill="#54524F" d="M107.788,82.075v4.924c1.081,0.031,2.027-0.037,2.683-0.306c0.691-0.283,2.534-1.837,2.506-4.618H107.788z
			"/>
		<path fill="#54524F" d="M107.788,82.075v4.924c-1.081,0.031-2.027-0.037-2.683-0.306c-0.691-0.283-2.534-1.837-2.506-4.618
			H107.788z"/>
	</g>
	<circle opacity="0.36" fill="#D6D09D" cx="107.513" cy="95.498" r="12.443"/>
</g>
<g>
	<rect x="369.875" y="10.541" fill="#B1AFAC" width="1" height="66.467"/>
	<rect x="369.208" y="72.091" fill="#A09F9F" width="2.5" height="4.917"/>
	<path fill="#B1AFAC" d="M373.19,76.539c-3.55-0.483-6.774-0.131-10.839,1.093c-6.855,2.065-0.625,14.167,0.375,16.333
		s0.667,8.333,0.667,8.333h6.833h5.103C374.383,93.435,378.057,84.673,373.19,76.539z"/>
	<path fill="#A09F9F" d="M378.1,77.633c-1.768-0.533-3.367-0.884-4.911-1.093c4.868,8.134,1.193,16.896,2.138,25.76h1.731
		c0,0-0.333-6.167,0.667-8.333S384.955,79.698,378.1,77.633z"/>
	<g>
		<path fill="#54524F" d="M370.225,102.299v6.282c1.379,0.039,2.585-0.048,3.423-0.39c0.881-0.36,3.233-2.343,3.198-5.892H370.225z"
			/>
		<path fill="#54524F" d="M370.225,102.299v6.282c-1.379,0.039-2.585-0.048-3.423-0.39c-0.881-0.36-3.233-2.343-3.198-5.892H370.225
			z"/>
	</g>
	<circle opacity="0.36" fill="#D6D09D" cx="369.875" cy="119.424" r="15.875"/>
</g>
<g>
	<g>
		<rect x="189.053" y="268.479" fill="#D1BDA6" width="329.894" height="25.294"/>
		<rect x="288.19" y="268.479" fill="#A08A70" width="1.195" height="25.294"/>
		<rect x="413.728" y="268.479" fill="#A08A70" width="1.195" height="25.294"/>
		<g>
			<path fill="#937965" d="M234.614,293.773h-12.656l-3.657,26.832c4.543-2.837,9.125-5.64,13.524-8.607L234.614,293.773z"/>
			<path fill="#A88C74" d="M218.301,320.605L199.6,457.803h9.914l22.312-145.805C227.425,314.966,222.844,317.768,218.301,320.605z"
				/>
		</g>
		<g>
			<path fill="#705B4D" d="M242.629,293.773h-9.539l-5.44,43.99c3.63-2.748,7.259-5.496,10.889-8.244L242.629,293.773z"/>
			<path fill="#937965" d="M227.651,337.764l-10.673,86.314h10.745l10.817-94.557C234.91,332.268,231.281,335.016,227.651,337.764z"
				/>
		</g>
		<g>
			<path fill="#705B4D" d="M468.347,293.773h9.539l5.44,43.99c-3.63-2.748-7.259-5.496-10.889-8.244L468.347,293.773z"/>
			<path fill="#937965" d="M483.326,337.764l10.673,86.314h-10.745l-10.817-94.557C476.066,332.268,479.696,335.016,483.326,337.764
				z"/>
		</g>
		<g>
			<path fill="#937965" d="M476.339,293.773h12.656l3.657,26.832c-4.543-2.837-9.125-5.64-13.524-8.607L476.339,293.773z"/>
			<path fill="#A88C74" d="M492.653,320.605l18.701,137.198h-9.914l-22.312-145.805
				C483.528,314.966,488.109,317.768,492.653,320.605z"/>
		</g>
		<polygon fill="#937965" points="518.947,268.479 189.053,268.288 204.662,260.239 507.135,260.239 		"/>
	</g>
	<ellipse fill="#A88C74" cx="239.948" cy="280.758" rx="2.681" ry="2.436"/>
	<ellipse fill="#A88C74" cx="352.914" cy="280.758" rx="2.681" ry="2.436"/>
	<ellipse fill="#A88C74" cx="465.666" cy="280.758" rx="2.681" ry="2.436"/>
</g>
<g>
	<g>
		<path fill="#B7A48A" d="M321.074,371.295l-9.096-1.322l-2.15,18.385l9.751-7.202C320.5,375.071,321.074,371.295,321.074,371.295z"
			/>
		<path fill="#C7B498" d="M319.579,381.156l-9.751,7.202l-9.931,84.914c0,0,6.331,0.379,6.04,0
			C305.703,472.967,315.714,406.675,319.579,381.156z"/>
		<path fill="#937863" d="M311.978,369.974l-5.42-1.493l-3.141,24.373c1.999-0.729,3.872-1.629,5.747-2.634L311.978,369.974z"/>
		<path fill="#A6896F" d="M303.417,392.853l-6.754,52.404h4.851l7.65-55.038C307.289,391.224,305.416,392.124,303.417,392.853z"/>
	</g>
	<g>
		<path fill="#E1CAD6" d="M376.469,273.295c-0.598-0.119-0.948-0.175-0.948-0.175h-18.845L328.645,273
			c0,0-29.107,4.543-32.701,25.744c-3.593,21.201-5.75,55.274-5.75,55.274s3.234,13.629,25.873,16.658
			c11.292,1.511,21.868,2.173,29.633,2.459l-0.006,0.312c0,0,3.866,0.073,10.131-0.106c1.704,0.003,2.644-0.015,2.644-0.015
			l-0.001-0.071c2.243-0.082,4.743-0.202,7.405-0.358C383.776,345.346,378.104,305.512,376.469,273.295z"/>
		<path fill="#CBB8CC" d="M408.222,298.864c-3.209-18.935-26.753-24.578-31.753-25.569c1.636,32.217,7.308,72.051-10.595,99.601
			c6.552-0.386,14.196-1.026,22.224-2.1c22.639-3.029,25.873-16.658,25.873-16.658S411.815,320.065,408.222,298.864z"/>
		<path fill="#B7A48A" d="M383.092,371.416l9.096-1.322l2.15,18.385l-9.751-7.202C383.666,375.192,383.092,371.416,383.092,371.416z
			"/>
		<path fill="#C7B498" d="M384.587,381.276l9.751,7.202l9.931,84.914c0,0-6.331,0.379-6.04,0
			C398.463,473.087,388.452,406.796,384.587,381.276z"/>
		<path fill="#937863" d="M392.188,370.094l5.42-1.493l3.141,24.373c-1.999-0.729-3.872-1.629-5.747-2.634L392.188,370.094z"/>
		<path fill="#A6896F" d="M400.75,392.974l6.754,52.404h-4.851l-7.65-55.038C396.877,391.344,398.75,392.245,400.75,392.974z"/>
	</g>
</g>
<g>
	<g>
		<g>
			<path fill="none" d="M139.849,354.274c-10.253,0-19.893-0.186-27.145-0.525c-4.618-0.215-7.4-0.441-9.082-0.671l12.049,67.913
				h48.157l12.043-67.884c-1.699,0.218-4.441,0.435-8.876,0.642C159.744,354.088,150.104,354.274,139.849,354.274z"/>
		</g>
	</g>
	<g>
		<path fill="none" d="M113.419,352.917c6.679,0.298,15.833,0.5,26.431,0.5c10.6,0,19.754-0.202,26.433-0.5"/>
	</g>
	<g>
		<g>
			<path fill="#DBC89A" d="M163.829,420.991h-48.157l-12.049-67.913c-0.862-0.116-1.437-0.233-1.816-0.352l12.42,69.991h51.048
				l12.408-69.93c-0.406,0.105-0.986,0.212-1.811,0.319L163.829,420.991z"/>
		</g>
	</g>
	<g>
		<g>
			<path fill="#DBC89A" d="M178.602,351.818h-3.096c0.684,0.076,1.23,0.156,1.63,0.237c-1.57,0.311-5.382,0.619-10.855,0.861
				c-6.679,0.298-15.833,0.5-26.433,0.5c-10.598,0-19.752-0.202-26.431-0.5c-5.472-0.242-9.283-0.55-10.854-0.861
				c0.399-0.081,0.945-0.161,1.629-0.237h-3.088c-0.035,0.079-0.044,0.159-0.044,0.237c0,0.215,0.003,0.441,0.744,0.671
				c0.38,0.118,0.954,0.235,1.816,0.352c1.682,0.229,4.464,0.456,9.082,0.671c7.252,0.339,16.892,0.525,27.145,0.525
				c10.255,0,19.894-0.186,27.146-0.525c4.435-0.207,7.177-0.424,8.876-0.642c0.824-0.108,1.404-0.214,1.811-0.319
				c0.956-0.251,0.957-0.499,0.957-0.732C178.639,351.977,178.638,351.897,178.602,351.818z"/>
		</g>
	</g>
	<g>
		<path fill="#DBC89A" d="M139.799,359.229c-9.671,0-18.76-0.124-25.593-0.35c-10.958-0.361-10.958-0.739-10.958-1.219
			c0-0.479,0-0.858,10.958-1.219c6.837-0.226,15.926-0.35,25.593-0.35c9.667,0,18.757,0.124,25.593,0.35
			c10.959,0.361,10.959,0.74,10.959,1.219c0,0.479,0,0.857-10.959,1.219C158.56,359.105,149.47,359.229,139.799,359.229z
			 M105.38,357.661c4.256,0.43,16.915,0.818,34.419,0.818c17.504,0,30.163-0.389,34.419-0.818
			c-4.256-0.43-16.915-0.818-34.419-0.818S109.636,357.231,105.38,357.661z"/>
	</g>
	<g>
		<path fill="#DBC89A" d="M139.657,365.114c-9.238,0-17.924-0.124-24.46-0.351c-10.489-0.362-10.489-0.74-10.489-1.219
			c0-0.479,0-0.857,10.489-1.219c6.534-0.226,15.221-0.35,24.46-0.35c9.239,0,17.926,0.124,24.46,0.35
			c10.489,0.362,10.489,0.74,10.489,1.219c0,0.478,0,0.856-10.489,1.219C157.582,364.99,148.895,365.114,139.657,365.114z
			 M106.761,363.545c4.056,0.43,16.164,0.819,32.896,0.819s28.84-0.39,32.896-0.819c-4.056-0.429-16.165-0.818-32.896-0.818
			C122.926,362.726,110.818,363.116,106.761,363.545z"/>
	</g>
	<g>
		<path fill="#DBC89A" d="M139.693,370.999c-9.044,0-17.548-0.124-23.946-0.351c-10.276-0.362-10.276-0.74-10.276-1.219
			c0-0.479,0-0.856,10.276-1.219c6.397-0.226,14.901-0.35,23.946-0.35c9.045,0,17.55,0.124,23.947,0.35
			c10.275,0.362,10.275,0.74,10.275,1.219c0,0.478,0,0.857-10.275,1.219C157.241,370.875,148.736,370.999,139.693,370.999z
			 M107.487,369.429c3.965,0.43,15.824,0.819,32.206,0.819c16.382,0,28.241-0.39,32.205-0.819
			c-3.965-0.429-15.824-0.818-32.205-0.818C123.312,368.611,111.453,369.001,107.487,369.429z"/>
	</g>
	<g>
		<path fill="#DBC89A" d="M139.902,376.882c-8.719,0-16.917-0.124-23.086-0.35c-9.918-0.362-9.918-0.76-9.918-1.219
			c0-0.459,0-0.855,9.918-1.219c6.167-0.226,14.366-0.35,23.086-0.35c8.72,0,16.919,0.124,23.086,0.35
			c9.918,0.363,9.918,0.76,9.918,1.219c0,0.459,0,0.857-9.918,1.219C156.819,376.758,148.621,376.882,139.902,376.882z
			 M108.855,375.313c3.812,0.429,15.253,0.819,31.048,0.819c15.795,0,27.236-0.391,31.048-0.819
			c-3.812-0.429-15.252-0.818-31.048-0.818S112.666,374.884,108.855,375.313z"/>
	</g>
	<g>
		<path fill="#DBC89A" d="M139.902,382.767c-8.549,0-16.588-0.124-22.636-0.351c-9.731-0.363-9.731-0.76-9.731-1.219
			c0-0.459,0-0.855,9.731-1.219c6.047-0.226,14.086-0.35,22.636-0.35c8.55,0,16.589,0.124,22.636,0.35
			c9.732,0.363,9.732,0.76,9.732,1.219c0,0.459,0,0.855-9.732,1.219C156.49,382.643,148.451,382.767,139.902,382.767z
			 M109.46,381.198c3.732,0.429,14.954,0.819,30.442,0.819c15.489,0,26.711-0.391,30.443-0.819
			c-3.732-0.429-14.955-0.818-30.443-0.818C124.414,380.38,113.192,380.769,109.46,381.198z"/>
	</g>
	<g>
		<path fill="#DBC89A" d="M139.851,354.111c-10.37,0-20.121-0.22-27.455-0.62c-11.833-0.645-11.833-1.393-11.833-1.994
			c0-0.601,0-1.349,11.833-1.994c7.336-0.399,17.087-0.62,27.455-0.62s20.119,0.221,27.455,0.62
			c11.833,0.646,11.833,1.394,11.833,1.994c0,0.602,0,1.35-11.833,1.994C159.971,353.891,150.221,354.111,139.851,354.111z
			 M102.131,351.497c3.382,0.819,18.14,1.614,37.72,1.614s34.337-0.795,37.72-1.614c-3.383-0.819-18.141-1.614-37.72-1.614
			S105.514,350.677,102.131,351.497z"/>
	</g>
	<g>
		<path fill="#DBC89A" d="M140.162,388.4c-8.234,0-15.978-0.099-21.805-0.276c-9.391-0.288-9.391-0.571-9.391-1.042
			s0-0.754,9.391-1.041c5.825-0.179,13.568-0.276,21.805-0.276s15.98,0.098,21.805,0.276c9.391,0.287,9.391,0.57,9.391,1.041
			s0,0.754-9.391,1.042C156.14,388.301,148.396,388.4,140.162,388.4z M111.82,387.082c4.356,0.307,14.606,0.568,28.341,0.568
			c13.735,0,23.985-0.262,28.342-0.568c-4.356-0.306-14.606-0.567-28.342-0.567C126.426,386.514,116.176,386.776,111.82,387.082z"/>
	</g>
	<g>
		<path fill="#DBC89A" d="M139.369,394.285c-8.023,0-15.568-0.099-21.245-0.276c-9.158-0.288-9.158-0.572-9.158-1.042
			c0-0.47,0-0.754,9.158-1.041c5.675-0.179,13.22-0.276,21.245-0.276c8.025,0,15.57,0.098,21.246,0.276
			c9.159,0.287,9.159,0.571,9.159,1.041c0,0.47,0,0.754-9.159,1.042C154.937,394.186,147.392,394.285,139.369,394.285z
			 M111.756,392.966c4.24,0.307,14.231,0.568,27.614,0.568c13.383,0,23.374-0.262,27.615-0.568
			c-4.24-0.306-14.231-0.567-27.615-0.567C125.986,392.399,115.995,392.661,111.756,392.966z"/>
	</g>
	<g>
		<path fill="#DBC89A" d="M139.761,400.169c-7.689,0-14.921-0.099-20.362-0.276c-8.792-0.289-8.792-0.588-8.792-1.042
			c0-0.47,0-0.753,8.792-1.041c5.44-0.179,12.67-0.276,20.362-0.276c7.691,0,14.923,0.098,20.362,0.276
			c8.793,0.288,8.793,0.571,8.793,1.041c0,0.454,0,0.753-8.793,1.042C154.682,400.07,147.451,400.169,139.761,400.169z
			 M113.294,398.85c4.058,0.307,13.641,0.568,26.467,0.568c12.827,0,22.411-0.262,26.468-0.568
			c-4.057-0.306-13.64-0.567-26.468-0.567C126.934,398.283,117.351,398.545,113.294,398.85z"/>
	</g>
	<g>
		<path fill="#DBC89A" d="M139.653,406.053c-7.39,0-14.343-0.099-19.579-0.277c-8.467-0.289-8.467-0.588-8.467-1.041
			c0-0.454,0-0.754,8.467-1.042c5.229-0.179,12.182-0.276,19.579-0.276s14.349,0.098,19.578,0.276
			c8.467,0.288,8.467,0.588,8.467,1.042c0,0.453,0,0.752-8.467,1.041C153.996,405.955,147.043,406.053,139.653,406.053z
			 M114.201,404.735c3.894,0.306,13.116,0.568,25.452,0.568c12.336,0,21.558-0.263,25.452-0.568
			c-3.894-0.306-13.116-0.568-25.452-0.568C127.316,404.167,118.095,404.428,114.201,404.735z"/>
	</g>
	<g>
		<path fill="#DBC89A" d="M139.732,411.937c-7.237,0-14.043-0.099-19.164-0.276c-8.295-0.289-8.295-0.589-8.295-1.042
			s0-0.753,8.295-1.041c5.12-0.179,11.926-0.276,19.164-0.276c7.239,0,14.045,0.098,19.165,0.276
			c8.295,0.288,8.295,0.588,8.295,1.041s0,0.753-8.295,1.042C153.776,411.839,146.969,411.937,139.732,411.937z M114.821,410.619
			c3.809,0.306,12.838,0.568,24.911,0.568c12.074,0,21.103-0.263,24.913-0.568c-3.809-0.306-12.838-0.567-24.913-0.567
			C127.658,410.051,118.63,410.313,114.821,410.619z"/>
	</g>
	<g>
		<path fill="#DBC89A" d="M139.345,417.822c-6.928,0-13.444-0.099-18.347-0.276c-7.955-0.29-7.955-0.589-7.955-1.042
			c0-0.453,0-0.752,7.955-1.041c4.901-0.179,11.417-0.276,18.347-0.276c6.93,0,13.446,0.098,18.348,0.276
			c7.956,0.289,7.956,0.588,7.956,1.041c0,0.453,0,0.752-7.956,1.042C152.79,417.723,146.274,417.822,139.345,417.822z
			 M115.497,416.504c3.639,0.306,12.29,0.568,23.849,0.568c11.56,0,20.211-0.263,23.851-0.568
			c-3.64-0.305-12.291-0.567-23.851-0.567C127.787,415.936,119.136,416.199,115.497,416.504z"/>
	</g>
</g>
<g>
	<g>
		<g>
			<polygon fill="#C1C6C1" points="492.237,199.565 474.542,199.565 474.542,226.425 492.237,204.118 			"/>
			<path fill="#B1BAB1" d="M474.542,226.425v35.064h17.695v-57.372L474.542,226.425z M483.39,249.096
				c-1.543,0-2.794-1.251-2.794-2.794c0-1.543,1.251-2.794,2.794-2.794c1.543,0,2.794,1.251,2.794,2.794
				C486.184,247.845,484.933,249.096,483.39,249.096z"/>
		</g>
		<g>
			<path fill="#F2F7D7" d="M456.632,230.912v30.577h17.695v-55.221C468.206,214.483,462.514,222.698,456.632,230.912z
				 M465.48,249.096c-1.543,0-2.794-1.251-2.794-2.794c0-1.543,1.251-2.794,2.794-2.794c1.543,0,2.794,1.251,2.794,2.794
				C468.274,247.845,467.023,249.096,465.48,249.096z"/>
			<path fill="#F6F9DE" d="M474.327,199.565h-17.695v31.347c5.882-8.215,11.574-16.429,17.695-24.644V199.565z"/>
		</g>
		<g>
			<path fill="#ABD3AB" d="M438.149,236.559v24.931h17.695V210.61L438.149,236.559z M446.997,249.096
				c-1.543,0-2.794-1.251-2.794-2.794c0-1.543,1.251-2.794,2.794-2.794c1.543,0,2.794,1.251,2.794,2.794
				C449.791,247.845,448.54,249.096,446.997,249.096z"/>
			<polygon fill="#BDE0BD" points="455.845,199.565 438.149,199.565 438.149,236.559 455.845,210.61 			"/>
		</g>
		<g>
			<rect x="455.845" y="199.565" fill="#909190" width="0.787" height="61.924"/>
		</g>
		<g>
			<rect x="474.327" y="199.565" fill="#909190" width="0.787" height="61.924"/>
		</g>
	</g>
	<g>
		<circle fill="#909190" cx="446.997" cy="246.218" r="3.116"/>
	</g>
	<g>
		<circle fill="#909190" cx="465.48" cy="246.218" r="3.116"/>
	</g>
	<g>
		<circle fill="#909190" cx="483.39" cy="246.218" r="3.116"/>
	</g>
</g>
<g>
	<g>
		<path fill="#0F171D" d="M366.258,160.65c-2.035,0-3.631-2.343-3.631-5.335c0-2.991,1.596-5.335,3.631-5.335
			c2.037,0,3.632,2.344,3.632,5.335C369.89,158.307,368.295,160.65,366.258,160.65z M366.258,151.176
			c-1.32,0-2.436,1.896-2.436,4.14c0,2.244,1.115,4.14,2.436,4.14c1.321,0,2.437-1.896,2.437-4.14
			C368.694,153.072,367.579,151.176,366.258,151.176z"/>
	</g>
</g>
<g opacity="0.1">
	<rect x="339.586" y="157.202" fill="#605A55" width="58.218" height="68.65"/>
</g>
<g>
	<rect x="337.15" y="154.881" fill="#FFFFFF" width="58.218" height="68.65"/>
</g>
<g>
	<path fill="#3A3A3A" d="M362.912,178.034l-0.1-0.875h-0.043c-0.387,0.545-1.133,1.033-2.123,1.033c-1.407,0-2.124-0.99-2.124-1.994
		c0-1.679,1.492-2.597,4.175-2.582v-0.144c0-0.574-0.158-1.607-1.578-1.607c-0.646,0-1.32,0.201-1.808,0.516l-0.287-0.832
		c0.574-0.373,1.407-0.617,2.282-0.617c2.123,0,2.639,1.449,2.639,2.841v2.597c0,0.602,0.029,1.19,0.116,1.664H362.912z
		 M362.726,174.49c-1.377-0.029-2.942,0.215-2.942,1.564c0,0.818,0.546,1.206,1.191,1.206c0.904,0,1.478-0.574,1.679-1.162
		c0.043-0.129,0.072-0.273,0.072-0.402V174.49z"/>
	<path fill="#3A3A3A" d="M370.636,174.992l-1.005,3.041h-1.291l3.285-9.67h1.507l3.299,9.67h-1.334l-1.033-3.041H370.636z
		 M373.807,174.017l-0.947-2.784c-0.215-0.631-0.359-1.205-0.501-1.765h-0.029c-0.144,0.574-0.301,1.162-0.488,1.751l-0.946,2.798
		H373.807z"/>
	<path fill="#3A3A3A" d="M359.009,195.26c0.029-0.474,0.057-1.176,0.057-1.793v-8.393h1.248v4.362h0.029
		c0.445-0.775,1.248-1.277,2.367-1.277c1.722,0,2.942,1.435,2.928,3.543c0,2.482-1.564,3.716-3.113,3.716
		c-1.005,0-1.808-0.387-2.325-1.305h-0.043l-0.057,1.148H359.009z M360.315,192.477c0,0.158,0.029,0.315,0.057,0.459
		c0.244,0.875,0.977,1.478,1.895,1.478c1.319,0,2.109-1.076,2.109-2.669c0-1.391-0.717-2.582-2.067-2.582
		c-0.861,0-1.664,0.588-1.922,1.55c-0.029,0.143-0.072,0.315-0.072,0.516V192.477z"/>
	<path fill="#3A3A3A" d="M370.321,185.719c0.546-0.115,1.407-0.201,2.282-0.201c1.248,0,2.051,0.215,2.654,0.703
		c0.502,0.373,0.804,0.947,0.804,1.707c0,0.932-0.617,1.75-1.636,2.123v0.029c0.918,0.23,1.994,0.99,1.994,2.425
		c0,0.832-0.331,1.463-0.818,1.937c-0.675,0.617-1.765,0.904-3.343,0.904c-0.861,0-1.521-0.057-1.937-0.114V185.719z
		 M371.57,189.679h1.133c1.32,0,2.095-0.689,2.095-1.621c0-1.134-0.861-1.578-2.124-1.578c-0.574,0-0.903,0.043-1.104,0.086V189.679
		z M371.57,194.313c0.243,0.043,0.602,0.057,1.047,0.057c1.291,0,2.482-0.473,2.482-1.88c0-1.32-1.133-1.865-2.496-1.865h-1.033
		V194.313z"/>
	<path fill="#3A3A3A" d="M364.017,212.229c-0.331,0.172-1.062,0.402-1.994,0.402c-2.095,0-3.459-1.421-3.459-3.544
		c0-2.138,1.464-3.687,3.731-3.687c0.746,0,1.407,0.186,1.75,0.359l-0.286,0.975c-0.301-0.172-0.775-0.329-1.464-0.329
		c-1.592,0-2.454,1.176-2.454,2.625c0,1.607,1.033,2.597,2.411,2.597c0.717,0,1.192-0.187,1.55-0.345L364.017,212.229z"/>
	<path fill="#3A3A3A" d="M375.342,212.171c-0.459,0.229-1.377,0.459-2.554,0.459c-2.725,0-4.778-1.722-4.778-4.893
		c0-3.027,2.053-5.079,5.05-5.079c1.206,0,1.966,0.258,2.296,0.43l-0.301,1.019c-0.473-0.23-1.147-0.402-1.951-0.402
		c-2.266,0-3.773,1.449-3.773,3.988c0,2.367,1.363,3.888,3.716,3.888c0.761,0,1.535-0.158,2.037-0.402L375.342,212.171z"/>
</g>
<g>
	<path fill="#4E6327" d="M225.869,247.685c0.391,2.951,2.755,5.956,4.516,5.761c0.127-0.01,0.248-0.028,0.371-0.045
		c1.251-7.209,1.034-14.805,2.133-21.971c-0.176-0.014-0.352-0.043-0.527-0.092c-2.327-0.671-3.702-0.589-4.251,0.539
		c-1.024,2.099-4.252,6.434-1.926,15.171C226.186,247.047,226.064,247.282,225.869,247.685z"/>
	<path fill="#415120" d="M237.137,246.928c-0.02-0.321-0.059-0.609-0.121-0.904c-0.32-1.557,2.442-6.792,1.124-11.519
		c-0.644-2.308-1.159-2.83-3.132-3.159c-0.537-0.09-1.32,0.15-2.119,0.085c-1.099,7.166-0.882,14.762-2.133,21.971
		C233.847,252.92,235.502,249.989,237.137,246.928z"/>
	<path fill="#3C4009" d="M231.612,248.278c0.112,0.016,0.225-0.061,0.318-0.188c-0.185-0.012-0.371-0.027-0.555-0.041
		C231.425,248.177,231.507,248.264,231.612,248.278z"/>
	<path fill="#3C4009" d="M231.834,246.93c-0.211-0.025-0.432,0.254-0.494,0.626c-0.031,0.188-0.015,0.362,0.034,0.493
		c0.184,0.014,0.37,0.029,0.555,0.041c0.081-0.111,0.147-0.262,0.176-0.436C232.166,247.281,232.046,246.958,231.834,246.93z"/>
	<g>
		<path fill="#D1C7D0" d="M237.338,245.346h-18.116c-0.007,0.268-0.028,0.533-0.028,0.805c0,5.539,2.336,13.747,5.275,16.754h6.419
			c0.049,0,0,0,0,0C234.769,258.675,237.56,252.456,237.338,245.346z"/>
		<path fill="#BCB5BC" d="M242.509,246.151c0-0.272-0.02-0.537-0.027-0.805h-5.144c0.221,7.11-2.569,13.329-6.45,17.559h6.769
			C240.804,259.942,242.509,251.916,242.509,246.151z"/>
	</g>
</g>
<g>
	<rect x="273.646" y="257.345" fill="#F5C276" width="61.39" height="5.915"/>
	<rect x="277.803" y="251.43" fill="#6F5578" width="63.946" height="5.915"/>
	<rect x="274.445" y="249.334" fill="#95A267" width="25.898" height="2.079"/>
	<rect x="300.344" y="249.334" fill="#DBC194" width="32.454" height="2.079"/>
	<rect x="332.797" y="249.334" fill="#95A267" width="7.833" height="2.079"/>
</g>
<rect x="278.75" y="257.345" fill="#F4DCBD" width="1.875" height="5.915"/>
<rect x="287.394" y="251.413" fill="#D7C7DD" width="1.393" height="5.932"/>
</svg>
