<svg width="588" height="866" viewBox="0 0 588 866" fill="none" xmlns="http://www.w3.org/2000/svg">
<path d="M530.241 6.81984C530.559 7.2058 530.907 15.3749 530.988 24.9429C531.042 38.8848 531.273 42.4616 532.142 42.8283C532.677 43.0697 535.073 44.1832 537.389 45.3177L541.645 47.3021L541.843 51.8732L542.09 56.4728L546.497 57.2615C553.108 58.4444 559.722 58.6842 569.32 58.081C579.783 57.5038 582.633 57.5965 584.659 58.766C589.167 61.3685 588.801 65.2763 582.557 82.8749C568.418 122.453 559.152 175.108 556.235 232.443C554.125 274.577 556.118 307.735 561.94 327.708C565.513 339.765 569.601 345.434 575.011 345.654L577.701 345.789L577.416 347.921C576.74 353.067 573.925 366.365 572.646 370.219C570.734 375.868 569.573 377.763 567.714 378.175C565.246 378.708 563.152 376.487 560.747 370.71C558.279 364.692 550.868 334.956 549.11 324.082C546.875 309.826 545.483 289.778 545.618 272.703C545.61 269.324 545.522 266.436 545.371 266.349C545.27 266.29 545.056 268.53 545.044 271.359C544.951 274.21 543.814 301.442 542.431 331.908L539.972 387.278L541.204 446.197C541.959 478.574 542.769 505.242 543.073 505.418C543.427 505.622 543.667 508.597 543.696 512.057C543.776 518.585 544.667 538.682 546.922 582.257C550.329 649.454 550.388 684.332 546.891 714.59C546.503 718.081 546.07 722.692 545.91 724.829C545.811 727 541.148 754.357 535.68 785.707C527.954 829.73 525.44 842.864 524.624 843.338C523.888 843.792 523.256 845.587 522.297 849.828C521.193 854.66 520.632 856.092 518.977 858.378C517.872 859.833 516.756 860.945 516.548 860.825C516.297 860.68 515.893 860.919 515.659 861.324C515.045 862.388 513.284 859.818 512.821 857.12C512.602 855.981 512.051 855.054 511.683 855.112C511.24 855.059 511.246 854.928 511.621 854.739C512.438 854.265 512.114 850.026 511.222 850.051C510.934 850.089 510.416 849.586 510.133 849.017C509.59 848.097 509.672 848.076 510.487 848.884C511.028 849.467 511.559 849.706 511.676 849.503C512.144 848.694 510.173 842.288 509.315 841.793C508.302 841.208 485.645 728.052 485.734 723.917C485.777 722.322 485.46 720.652 485.088 720.235C484.244 719.478 482.34 704.536 481.423 692.324C479.254 662.981 479.501 628.753 482.411 557.504C483.075 542.085 483.682 524.541 483.832 518.551C483.977 512.219 484.399 506.926 484.875 505.985C485.438 504.892 485.801 485.317 485.966 446.786L486.2 389.186L474.103 162.066L477.701 105.192C479.682 73.9226 481.415 48.1151 481.532 47.9125C481.678 47.6593 483.568 46.7244 485.77 45.8347C487.942 44.9958 489.862 44.0108 490.038 43.7069C490.301 43.2511 490.357 25.7269 490.172 13.5324L490.053 7.65648L494.046 5.30249C501.288 1.17813 510.008 -0.472712 517.212 0.850174C520.654 1.55495 528.892 5.29827 530.241 6.81984ZM556.356 68.4904C549.286 67.9876 543.361 67.6056 543.231 67.5978C543.071 67.6405 544.529 88.7406 546.518 114.536L550.074 161.359L548.499 195.901C547.645 214.924 547.062 230.32 547.179 230.117C547.266 229.966 547.676 225.746 548.075 220.844C550.611 189.085 557.829 138.219 567.075 86.7663C569.999 70.3575 570.051 69.915 569.596 69.652C569.393 69.535 563.477 69.0227 556.356 68.4904Z" fill="#69D17E"/>
<path d="M415.547 826.783C425.262 825.17 430.529 825.553 427.169 827.493C423.8 829.438 412.652 832.45 402.938 834.063C393.223 835.677 387.964 835.288 391.324 833.348C394.684 831.408 405.832 828.397 415.547 826.783Z" fill="#69D17E"/>
<path d="M112.502 828.915C221.341 837.864 441.489 855.267 483.549 857.753C507.789 859.244 513.229 858.747 500.859 856.261L483.549 852.283L501.849 851.289C513.719 850.792 520.649 853.278 521.139 856.758C521.139 860.239 523.619 857.753 526.089 851.289C531.529 836.87 536.479 839.356 532.029 854.769C528.069 870.183 552.309 871.674 137.238 835.876C47.1979 828.418 -12.6631 822.451 3.66288 822.451C19.9889 822.451 68.9659 825.434 112.502 828.915Z" fill="#69D17E"/>
<path d="M393.539 844.893C389.908 846.426 385.237 845.915 383.68 844.383C381.604 842.851 384.718 841.319 390.427 841.829C396.139 841.829 397.689 843.361 393.539 844.893Z" fill="#69D17E"/>
<path d="M434.969 849.548C430.569 850.807 423.719 850.807 420.289 849.548C417.349 847.661 420.779 846.403 429.099 846.403C436.929 846.403 439.869 847.661 434.969 849.548Z" fill="#69D17E"/>
</svg>
