<svg width="763" height="470" viewBox="0 0 763 470" fill="none" xmlns="http://www.w3.org/2000/svg">
<path d="M20.0701 22.3873C20.5631 22.3053 27.8118 26.0883 36.1383 30.8023C48.2395 37.7262 51.4524 39.315 52.2045 38.7457C52.6811 38.4031 54.8435 36.8846 56.984 35.4461L60.8306 32.7526L64.8883 34.8666L68.9953 36.9522L71.8819 33.53C76.2113 28.3968 79.7261 22.7887 84.003 14.1744C88.7343 4.82524 90.2399 2.40292 92.2655 1.23342C96.7732 -1.36908 99.9745 0.901705 112.093 15.1083C139.299 47.1423 180.268 81.494 228.463 112.688C263.897 135.582 293.608 150.435 313.817 155.379C326.045 158.313 332.998 157.608 335.894 153.032L337.356 150.77L339.06 152.083C343.179 155.242 353.288 164.329 355.985 167.364C359.922 171.844 360.982 173.797 360.41 175.613C359.637 178.017 356.666 178.719 350.461 177.913C344.016 177.042 314.557 168.592 304.262 164.677C290.798 159.486 272.74 150.666 258.02 142.013C255.09 140.329 252.545 138.962 252.393 139.049C252.292 139.108 254.125 140.413 256.569 141.838C258.992 143.343 282.006 157.944 307.7 174.375L354.422 204.19L406.064 232.582C434.48 248.116 457.98 260.75 458.284 260.574C458.638 260.37 461.335 261.649 464.346 263.354C470.039 266.549 487.889 275.826 526.753 295.66C586.652 326.308 616.887 343.696 641.342 361.854C644.172 363.935 647.948 366.616 649.718 367.822C651.549 368.994 672.909 386.71 697.326 407.121C731.587 435.823 741.705 444.568 741.707 445.511C741.733 446.375 742.971 447.821 746.164 450.771C749.797 454.144 750.756 455.345 751.909 457.921C752.616 459.606 753.022 461.128 752.814 461.248C752.563 461.393 752.568 461.863 752.802 462.268C753.416 463.331 750.31 463.572 747.742 462.624C746.645 462.244 745.567 462.258 745.433 462.605C745.166 462.963 745.056 462.892 745.079 462.473C745.077 461.528 741.244 459.689 740.82 460.475C740.709 460.742 740.015 460.94 739.38 460.901C738.312 460.91 738.334 460.829 739.442 460.528C740.217 460.35 740.69 460.009 740.573 459.807C740.105 458.997 733.572 457.501 732.715 457.996C731.702 458.581 622.377 421.625 618.841 419.48C617.481 418.645 615.876 418.085 615.33 418.199C614.251 418.551 600.359 412.729 589.325 407.418C562.828 394.624 533.31 377.296 473.062 339.152C460.04 330.868 445.15 321.57 440.038 318.444C434.626 315.153 430.253 312.141 429.676 311.258C429.011 310.224 412.24 300.122 378.954 280.714L329.188 251.712L126.448 148.627L78.9927 117.074C52.9033 99.7241 31.4198 85.3195 31.3028 85.1169C31.1566 84.8637 31.2918 82.7599 31.6222 80.4082C31.9819 78.1072 32.0888 75.9522 31.9133 75.6483C31.6502 75.1925 16.5021 66.3813 5.84854 60.4448L0.700344 57.6099L0.658203 52.9749C0.70765 44.6406 3.63779 36.2637 8.38528 30.6866C10.7171 28.0574 18.0779 22.7947 20.0701 22.3873ZM86.5355 30.6068C82.5652 36.478 79.272 41.4181 79.1999 41.5273C79.1571 41.687 98.1595 50.974 121.493 62.1494L163.821 82.4816L192.948 101.117C208.995 111.367 222.037 119.571 221.92 119.368C221.833 119.216 218.383 116.751 214.338 113.955C188.101 95.8796 147.659 64.195 107.723 30.4618C94.9742 19.725 94.6171 19.4584 94.1616 19.7214C93.9589 19.8384 90.557 24.7061 86.5355 30.6068Z" fill="#5cd6ad"/>
<path d="M644.692 431.177C654.407 429.564 659.675 429.947 656.315 431.887C652.946 433.832 641.798 436.844 632.083 438.457C622.368 440.071 617.109 439.682 620.47 437.742C623.83 435.802 634.978 432.791 644.692 431.177Z" fill="#5cd6ad"/>
<path d="M341.648 433.309C450.487 442.258 670.635 459.661 712.695 462.147C736.935 463.638 742.375 463.141 730.005 460.655L712.695 456.677L730.995 455.683C742.865 455.186 749.795 457.672 750.285 461.152C750.285 464.633 752.765 462.147 755.235 455.683C760.675 441.264 765.625 443.75 761.175 459.163C757.215 474.577 781.455 476.068 366.384 440.27C276.344 432.812 216.483 426.845 232.809 426.845C249.135 426.845 298.112 429.828 341.648 433.309Z" fill="#5cd6ad"/>
<path d="M622.685 449.287C619.054 450.82 614.383 450.309 612.826 448.777C610.75 447.245 613.864 445.713 619.573 446.223C625.285 446.223 626.835 447.755 622.685 449.287Z" fill="#5cd6ad"/>
<path d="M664.115 453.942C659.715 455.201 652.865 455.201 649.435 453.942C646.495 452.055 649.925 450.797 658.245 450.797C666.075 450.797 669.015 452.055 664.115 453.942Z" fill="#5cd6ad"/>
</svg>
