<svg width="492" height="364" viewBox="0 0 492 364" fill="none" xmlns="http://www.w3.org/2000/svg">
  <path fill-rule="evenodd" clip-rule="evenodd"
    d="M0.5 0.766724H491.5V270.734C491.5 321.82 450.086 363.234 399 363.234H93C41.9137 363.234 0.5 321.82 0.5 270.734V0.766724ZM68.0329 32.7667L211.735 131.52C232.376 145.705 259.624 145.705 280.265 131.52L423.967 32.7667H68.0329ZM459.5 47.1759L298.389 157.893C266.83 179.58 225.17 179.58 193.611 157.893L32.5 47.1759V270.734C32.5 304.147 59.5868 331.234 93 331.234H399C432.413 331.234 459.5 304.147 459.5 270.734V47.1759Z"
    fill="#091B0D" />
</svg>